<?xml version="1.0" standalone="no"?>
<!DOCTYPE svg PUBLIC "-//W3C//DTD SVG 20010904//EN"
 "http://www.w3.org/TR/2001/REC-SVG-20010904/DTD/svg10.dtd">
<svg version="1.0" xmlns="http://www.w3.org/2000/svg"
 width="285.000000pt" height="285.000000pt" viewBox="0 0 285.000000 285.000000"
 preserveAspectRatio="xMidYMid meet">
<metadata>
Created by potrace 1.11, written by Peter Selinger 2001-2013
</metadata>
<g transform="translate(0.000000,285.000000) scale(0.100000,-0.100000)"
fill="#000000" stroke="none">
<path d="M1281 2840 c-108 -11 -253 -46 -370 -91 l-81 -31 0 -36 c0 -26 3 -33
9 -23 8 12 11 8 17 -15 4 -16 13 -36 21 -45 21 -25 86 -19 117 10 14 13 30 20
36 16 6 -4 20 1 31 11 10 9 19 14 19 9 0 -4 6 -3 13 2 6 5 47 10 89 11 63 2
78 0 86 -14 8 -14 18 -15 55 -10 28 4 51 14 56 24 8 14 14 15 40 6 28 -11 30
-10 36 17 7 32 21 38 28 12 3 -13 6 -9 11 12 12 47 32 71 50 56 17 -14 31 2
22 25 -3 9 -1 24 4 35 10 17 7 19 -27 19 -21 0 -67 2 -103 4 -36 3 -107 0
-159 -4z"/>
<path d="M1830 2770 c0 -27 46 -56 64 -41 10 8 16 8 25 -2 11 -14 61 -11 61 3
0 5 -34 20 -75 33 -72 25 -75 25 -75 7z"/>
<path d="M2010 2710 c0 -6 7 -10 15 -10 8 0 15 2 15 4 0 2 -7 6 -15 10 -8 3
-15 1 -15 -4z"/>
<path d="M740 2670 c-10 -6 -15 -25 -15 -55 -1 -40 2 -45 23 -45 29 0 42 33
29 77 -11 36 -14 38 -37 23z m20 -76 c0 -8 -4 -12 -10 -9 -5 3 -10 10 -10 16
0 5 5 9 10 9 6 0 10 -7 10 -16z"/>
<path d="M384 2388 c-217 -225 -345 -512 -374 -841 -13 -149 -13 -144 14 -151
14 -3 63 -35 111 -71 48 -36 84 -61 80 -55 -3 5 -1 10 4 10 18 0 12 28 -9 43
-11 8 -25 29 -32 48 -6 18 -20 41 -30 49 -19 16 -50 118 -41 133 3 5 -1 13 -8
18 -12 8 -12 10 0 18 10 7 14 30 14 85 -1 61 3 78 18 92 11 9 19 25 19 35 0
10 7 25 16 34 10 9 14 24 11 37 -12 44 23 116 89 186 35 37 64 73 64 79 0 7
11 20 25 29 14 9 25 26 25 39 0 14 9 26 25 33 36 16 48 56 40 130 -7 62 -6 62
19 62 27 0 29 4 17 33 -6 15 -22 3 -97 -75z"/>
<path d="M699 1520 c-38 -7 -105 -35 -113 -49 -3 -4 -1 -47 4 -95 10 -95 14
-101 95 -151 35 -21 54 -24 153 -27 109 -3 115 -2 133 21 22 26 22 39 9 133
-14 94 -35 128 -90 144 -70 20 -151 30 -191 24z m123 -155 c0 -5 -5 -11 -11
-13 -6 -2 -11 4 -11 13 0 9 5 15 11 13 6 -2 11 -8 11 -13z m88 -60 c10 -12 9
-16 -5 -21 -19 -8 -40 9 -31 25 10 15 21 14 36 -4z"/>
<path d="M1573 1397 c-25 -14 -63 -60 -63 -76 0 -6 -4 -11 -10 -11 -5 0 -10
-6 -10 -12 0 -7 -13 -40 -29 -72 -27 -54 -28 -61 -15 -82 20 -30 98 -49 204
-49 74 0 92 4 139 28 29 16 59 33 65 38 6 5 29 23 51 39 93 69 94 83 13 123
-51 26 -84 34 -168 40 -14 1 -30 6 -36 9 -6 4 -28 10 -49 12 -21 3 -43 10 -48
15 -13 13 -17 13 -44 -2z m107 -147 c0 -5 -4 -10 -10 -10 -5 0 -10 5 -10 10 0
6 5 10 10 10 6 0 10 -4 10 -10z m-90 -71 c0 -5 -4 -9 -10 -9 -5 0 -10 7 -10
16 0 8 5 12 10 9 6 -3 10 -10 10 -16z m110 -49 c0 -5 -16 -10 -35 -10 -19 0
-35 5 -35 10 0 6 16 10 35 10 19 0 35 -4 35 -10z"/>
<path d="M260 1198 c1 -14 24 -48 33 -48 3 0 -1 14 -9 30 -16 32 -24 38 -24
18z"/>
<path d="M315 1120 c3 -5 8 -10 11 -10 2 0 4 5 4 10 0 6 -5 10 -11 10 -5 0 -7
-4 -4 -10z"/>
<path d="M2245 1100 c-3 -5 -15 -10 -26 -10 -10 0 -19 -4 -19 -9 0 -5 -31 -30
-70 -56 -59 -40 -79 -48 -124 -50 -54 -3 -116 -27 -116 -45 0 -6 -9 -10 -20
-10 -11 0 -20 -6 -20 -14 0 -15 42 -26 96 -26 18 0 36 -4 39 -10 6 -10 -19
-15 -66 -11 -14 1 -36 -2 -49 -7 -25 -9 -25 -9 10 -28 26 -13 30 -19 18 -22
-9 -2 -25 1 -35 6 -13 7 -30 3 -66 -18 l-49 -28 49 -33 c26 -18 50 -35 53 -39
3 -3 21 -17 40 -30 32 -22 280 -265 280 -274 0 -3 13 -18 30 -34 29 -30 30
-30 52 -11 12 11 32 22 44 25 19 5 23 15 29 81 5 55 4 78 -5 83 -7 4 -11 27
-10 56 3 68 2 74 -15 74 -9 0 -18 7 -21 15 -4 8 -12 15 -20 15 -8 0 -14 5 -14
11 0 6 10 9 23 8 39 -5 67 10 67 37 0 13 -4 24 -10 24 -5 0 -10 18 -10 40 0
22 5 40 10 40 6 0 10 8 10 19 0 16 -6 17 -50 13 -52 -5 -70 11 -27 23 57 17
77 30 77 52 0 15 7 23 22 25 18 2 23 10 24 35 1 26 -6 39 -33 63 -34 30 -85
41 -98 20z m-261 -309 c14 -5 16 -10 7 -15 -15 -10 -61 1 -61 14 0 12 26 12
54 1z m183 -45 c-4 -13 -41 -10 -109 6 -73 18 -57 24 32 14 49 -6 79 -14 77
-20z m53 -22 c0 -2 -7 -4 -15 -4 -8 0 -15 4 -15 10 0 5 7 7 15 4 8 -4 15 -8
15 -10z"/>
<path d="M997 920 c4 -36 7 -78 8 -95 l0 -30 -69 -3 c-70 -3 -126 11 -126 31
0 7 -5 6 -12 -2 -10 -11 -10 -14 0 -18 19 -7 14 -23 -12 -44 -14 -11 -30 -36
-37 -57 -6 -20 -20 -48 -30 -61 -14 -18 -19 -40 -18 -91 1 -53 -4 -78 -25
-122 -31 -66 -32 -74 -6 -81 25 -6 26 -27 2 -33 -9 -3 -23 -17 -30 -32 -12
-25 -10 -29 15 -49 42 -34 230 -128 303 -152 195 -63 402 -88 583 -71 210 20
358 62 530 152 116 61 124 69 108 104 -6 14 -11 31 -11 39 0 26 -83 140 -145
200 -85 82 -123 115 -133 115 -5 0 -22 12 -38 28 -16 15 -46 40 -67 56 -34 26
-42 28 -80 20 -51 -11 -61 -40 -24 -76 25 -24 87 -122 87 -137 0 -5 6 -14 14
-20 8 -7 31 -44 51 -84 20 -40 47 -90 60 -112 54 -92 55 -95 43 -90 -7 3 -18
15 -24 28 -48 100 -106 189 -154 238 -14 15 -45 65 -69 113 -24 47 -54 92 -67
101 -19 12 -23 21 -18 42 l7 26 -59 -8 c-112 -15 -186 -10 -230 14 -40 21 -43
21 -78 4 -29 -13 -39 -14 -48 -5 -10 10 -8 14 8 18 14 4 26 20 34 45 7 21 21
46 32 55 10 10 18 27 18 38 0 12 -3 16 -8 10 -16 -24 -107 -58 -148 -55 -23 1
-45 -3 -49 -9 -7 -12 -65 54 -65 74 0 7 -7 21 -15 32 -14 17 -15 13 -8 -46z
m483 -245 c0 -8 -4 -15 -10 -15 -5 0 -10 7 -10 15 0 8 5 15 10 15 6 0 10 -7
10 -15z m-730 -389 c0 -3 -4 -8 -10 -11 -5 -3 -10 -1 -10 4 0 6 5 11 10 11 6
0 10 -2 10 -4z m1220 -129 c0 -5 -4 -5 -10 -2 -5 3 -10 14 -10 23 0 15 2 15
10 2 5 -8 10 -19 10 -23z"/>
<path d="M1470 800 c0 -5 5 -10 10 -10 6 0 10 5 10 10 0 6 -4 10 -10 10 -5 0
-10 -4 -10 -10z"/>
<path d="M230 770 c0 -5 -14 -10 -30 -10 l-31 0 16 -30 c17 -33 27 -37 42 -17
14 17 22 67 12 67 -5 0 -9 -4 -9 -10z"/>
<path d="M720 745 c0 -14 2 -25 4 -25 2 0 6 11 8 25 3 14 1 25 -3 25 -5 0 -9
-11 -9 -25z"/>
</g>
</svg>
