<?xml version="1.0" standalone="no"?>
<!DOCTYPE svg PUBLIC "-//W3C//DTD SVG 20010904//EN"
 "http://www.w3.org/TR/2001/REC-SVG-20010904/DTD/svg10.dtd">
<svg version="1.0" xmlns="http://www.w3.org/2000/svg"
 width="285.000000pt" height="285.000000pt" viewBox="0 0 285.000000 285.000000"
 preserveAspectRatio="xMidYMid meet">
<metadata>
Created by potrace 1.11, written by Peter Selinger 2001-2013
</metadata>
<g transform="translate(0.000000,285.000000) scale(0.100000,-0.100000)"
fill="#000000" stroke="none">
<path d="M1305 2839 c-55 -4 -142 -17 -193 -29 l-92 -22 0 -43 c0 -24 -5 -47
-10 -50 -6 -4 -8 -11 -5 -16 10 -16 36 -10 54 13 l18 22 28 -22 c22 -17 41
-22 91 -22 53 0 65 -3 74 -20 12 -22 33 -18 24 4 -6 17 12 31 21 16 11 -18 45
-11 45 10 0 23 26 39 51 33 14 -4 19 0 19 16 0 12 11 33 25 47 35 35 33 60 -6
68 -17 3 -34 5 -38 5 -3 -1 -51 -5 -106 -10z m-258 -121 c-2 -13 -4 -5 -4 17
-1 22 1 32 4 23 2 -10 2 -28 0 -40z"/>
<path d="M1840 2767 c0 -7 10 -18 21 -26 18 -11 23 -11 30 1 6 8 3 17 -8 26
-22 16 -43 16 -43 -1z"/>
<path d="M1917 2744 c3 -8 16 -14 29 -14 32 0 30 6 -5 18 -25 9 -29 8 -24 -4z"/>
<path d="M333 2335 c-102 -118 -188 -269 -247 -433 -36 -100 -74 -298 -78
-400 l-2 -84 40 -19 c23 -10 47 -25 54 -34 24 -28 70 -56 81 -49 6 3 7 9 3 13
-5 3 -20 27 -34 53 -13 26 -30 50 -36 52 -7 3 -15 20 -19 38 -4 18 -14 41 -22
50 -15 17 -11 50 11 78 22 28 20 72 -5 91 l-22 17 21 6 c18 6 20 11 12 27 -8
14 -8 20 2 23 53 16 54 17 36 30 -18 13 -14 25 17 42 11 6 21 17 22 25 1 8 4
35 8 60 6 51 17 67 92 148 41 43 54 65 59 98 3 24 10 43 15 43 5 0 9 7 9 15 0
7 6 18 14 22 12 7 33 143 22 143 -3 0 -26 -25 -53 -55z"/>
<path d="M655 1498 c-55 -20 -57 -25 -53 -116 3 -81 4 -84 38 -113 57 -48 80
-56 179 -62 142 -7 169 16 152 134 -12 83 -39 129 -86 146 -53 18 -192 26
-230 11z m205 -54 c0 -8 -4 -12 -10 -9 -5 3 -10 10 -10 16 0 5 5 9 10 9 6 0
10 -7 10 -16z m-30 -79 c0 -8 -7 -15 -15 -15 -8 0 -15 7 -15 15 0 8 7 15 15
15 8 0 15 -7 15 -15z m90 -66 c0 -15 -30 -23 -42 -11 -6 6 -8 18 -4 27 4 13
10 14 26 5 11 -6 20 -15 20 -21z"/>
<path d="M1541 1353 c-39 -48 -93 -172 -87 -197 5 -22 13 -26 85 -42 7 -1 35
-8 62 -14 27 -7 66 -9 86 -5 45 8 129 52 202 104 70 51 85 67 78 83 -10 26
-290 98 -383 98 -11 0 -30 -12 -43 -27z m141 -115 c-15 -15 -26 -4 -18 18 5
13 9 15 18 6 9 -9 9 -15 0 -24z m-152 -25 c0 -26 -1 -26 -15 -7 -19 25 -19 34
0 34 10 0 15 -10 15 -27z m60 -28 c0 -8 -7 -15 -15 -15 -16 0 -20 12 -8 23 11
12 23 8 23 -8z m20 -45 c0 -5 -5 -10 -11 -10 -5 0 -7 5 -4 10 3 6 8 10 11 10
2 0 4 -4 4 -10z m95 -1 c4 -6 5 -13 2 -16 -8 -7 -75 -8 -83 -1 -13 14 8 28 41
28 19 0 37 -5 40 -11z"/>
<path d="M2083 893 c9 -2 23 -2 30 0 6 3 -1 5 -18 5 -16 0 -22 -2 -12 -5z"/>
<path d="M1014 838 c5 -35 3 -53 -4 -58 -9 -6 -9 -13 0 -30 10 -18 8 -25 -7
-42 -15 -17 -25 -19 -73 -13 -30 4 -63 11 -73 16 -24 14 -44 -29 -28 -60 6
-11 15 -20 20 -18 9 2 81 -80 81 -94 0 -5 -10 -10 -22 -10 -13 -1 -5 -5 17 -8
27 -4 41 -12 43 -23 3 -15 -4 -18 -37 -18 -30 0 -41 -4 -41 -15 0 -8 -4 -15
-10 -15 -5 0 -10 -13 -10 -28 0 -23 6 -30 35 -41 42 -15 43 -23 9 -46 -27 -17
-27 -17 -22 9 4 18 1 26 -8 26 -8 0 -14 5 -14 11 0 6 -5 9 -11 7 -6 -2 -10 -8
-10 -13 0 -6 -10 -20 -21 -32 -25 -27 -18 -53 15 -53 13 0 38 -13 55 -28 30
-27 42 -52 24 -52 -5 0 -15 -12 -22 -26 -12 -22 -12 -27 0 -35 12 -8 12 -12 3
-16 -26 -10 -12 -19 23 -15 24 3 39 0 45 -9 6 -11 9 -10 15 4 8 22 33 22 50 0
13 -17 13 -17 14 0 0 11 8 17 23 17 l22 0 -25 20 c-25 20 -25 20 -5 35 11 9
28 22 37 29 9 8 37 18 62 21 25 4 46 11 46 16 0 5 18 9 40 9 39 0 40 -1 40
-35 0 -34 1 -35 40 -35 22 0 40 5 40 10 0 6 6 10 14 10 11 0 13 -12 9 -52 -3
-29 -5 -65 -4 -80 0 -22 -4 -28 -22 -28 -12 0 -28 -9 -34 -19 -11 -18 -8 -19
40 -23 82 -7 263 10 372 35 90 20 100 24 103 46 4 25 -15 71 -30 71 -4 0 -8
-7 -8 -15 0 -8 -9 -15 -20 -15 -12 0 -20 -7 -20 -17 0 -16 -18 -29 -67 -50
-16 -7 -17 29 -2 44 8 8 6 17 -10 34 -12 13 -24 34 -27 46 -4 13 -10 23 -14
23 -4 0 -11 16 -14 36 -4 19 -14 38 -22 41 -17 6 -20 83 -3 83 8 0 8 4 1 13
-17 21 -44 169 -32 181 7 7 12 4 16 -12 4 -12 10 -22 14 -22 4 0 11 -17 15
-37 4 -20 13 -42 21 -48 8 -5 17 -34 21 -62 3 -32 11 -53 18 -53 8 0 12 -14
12 -37 -1 -69 12 -113 33 -113 11 0 20 7 20 15 0 8 -5 15 -11 15 -5 0 -8 4 -4
10 9 15 33 0 38 -23 l4 -22 8 22 c4 13 13 19 21 16 30 -11 16 74 -25 155 -21
42 -49 100 -61 127 -71 158 -92 185 -127 166 -10 -5 -35 -9 -56 -9 -21 0 -44
-5 -51 -11 -10 -8 -16 -7 -26 4 -7 8 -22 15 -34 15 -12 0 -28 6 -34 12 -10 10
-15 10 -23 -2 -9 -13 -10 -12 -5 3 3 9 9 24 13 33 5 14 3 15 -17 4 -12 -6 -33
-10 -46 -7 -13 2 -24 0 -24 -4 0 -5 7 -9 15 -9 15 0 20 -12 9 -23 -11 -11 -74
28 -74 46 0 12 -8 17 -30 17 -38 0 -40 23 -6 59 13 15 31 43 40 64 15 37 15
37 -7 26 -12 -6 -32 -20 -44 -31 -12 -11 -26 -17 -32 -13 -20 12 -60 15 -66 5
-11 -17 -24 -11 -40 20 -9 17 -23 30 -32 30 -13 0 -15 -8 -9 -52z m328 -180
c-9 -9 -12 -7 -12 12 0 19 3 21 12 12 9 -9 9 -15 0 -24z m138 -42 c0 -3 -4 -8
-10 -11 -5 -3 -10 -1 -10 4 0 6 5 11 10 11 6 0 10 -2 10 -4z m-330 -46 c0 -5
-4 -10 -10 -10 -5 0 -10 5 -10 10 0 6 5 10 10 10 6 0 10 -4 10 -10z m410 -134
c13 -13 13 -56 0 -56 -5 0 -12 11 -16 25 -3 14 -10 22 -15 19 -5 -3 -9 21 -8
53 l1 58 14 -44 c8 -25 18 -49 24 -55z m130 19 c0 -8 -4 -15 -10 -15 -5 0 -10
7 -10 15 0 8 5 15 10 15 6 0 10 -7 10 -15z m-252 -65 c15 -48 16 -100 2 -100
-5 0 -10 -6 -10 -13 0 -7 -6 -22 -14 -32 -12 -16 -16 -17 -30 -6 -9 7 -16 22
-16 32 0 15 -8 19 -40 19 -33 0 -40 3 -40 20 0 17 7 20 40 20 38 0 40 2 40 30
0 29 25 67 45 69 6 1 16 -17 23 -39z m-159 -76 c8 -7 -4 -11 -46 -17 -37 -4
-43 -2 -43 13 0 15 6 17 43 13 23 -3 44 -7 46 -9z m221 -9 c11 -13 8 -15 -15
-15 -23 0 -26 2 -15 15 7 8 14 15 15 15 1 0 8 -7 15 -15z"/>
<path d="M1916 830 c17 -17 124 -17 124 0 0 6 -29 10 -67 10 -43 0 -64 -3 -57
-10z"/>
<path d="M2055 800 c-4 -6 7 -10 27 -10 25 0 29 3 18 10 -19 13 -37 13 -45 0z"/>
<path d="M1780 760 c0 -5 4 -10 9 -10 6 0 13 5 16 10 3 6 -1 10 -9 10 -9 0
-16 -4 -16 -10z"/>
<path d="M180 745 c0 -18 27 -38 40 -30 19 11 10 33 -15 37 -16 3 -25 1 -25
-7z"/>
<path d="M1826 741 c-15 -6 -16 -10 -7 -16 7 -4 16 -3 20 2 3 6 13 13 21 16
13 5 13 5 0 6 -8 0 -24 -4 -34 -8z"/>
<path d="M1708 703 c-36 -18 -35 -27 5 -74 19 -21 46 -62 61 -91 15 -29 37
-71 49 -93 13 -22 40 -71 61 -110 42 -78 65 -107 77 -99 14 8 10 42 -6 51 -10
6 -11 13 -5 23 7 11 10 12 10 2 0 -7 8 -21 17 -30 15 -16 16 -13 10 36 -6 54
3 68 20 30 11 -23 11 -23 18 6 6 20 4 31 -3 34 -7 2 -12 8 -12 14 0 5 14 -1
32 -13 22 -16 33 -19 36 -11 2 7 8 10 13 6 5 -3 9 2 9 11 0 23 -156 176 -212
209 -27 15 -48 31 -48 36 0 8 -90 81 -99 79 -3 -1 -18 -8 -33 -16z m119 -89
c-3 -3 -12 -4 -19 -1 -8 3 -5 6 6 6 11 1 17 -2 13 -5z m243 -206 c0 -12 -14
-10 -28 4 -19 19 -14 29 8 16 11 -7 20 -16 20 -20z"/>
<path d="M1850 711 c0 -6 6 -11 14 -11 8 0 17 -6 20 -12 3 -7 5 -4 3 7 -2 20
-37 35 -37 16z"/>
<path d="M1956 641 c-7 -11 54 -90 70 -90 7 -1 24 -17 38 -36 28 -36 63 -61
74 -51 3 3 -4 16 -16 29 -27 29 -28 41 -3 34 17 -4 17 -2 5 21 -7 14 -17 28
-23 31 -5 3 -11 13 -13 21 -8 35 -115 69 -132 41z"/>
<path d="M1820 353 c1 -10 7 -29 15 -43 8 -14 14 -35 15 -48 0 -13 7 -30 15
-38 8 -9 15 -24 15 -35 0 -29 17 -23 23 8 4 20 -6 48 -35 100 -22 40 -42 73
-44 73 -2 0 -4 -8 -4 -17z"/>
<path d="M1984 235 c-3 -13 -10 -22 -15 -19 -6 3 -3 -9 4 -28 8 -18 19 -32 26
-30 6 1 11 -3 11 -9 0 -5 5 -7 10 -4 6 3 10 19 10 36 0 16 -4 29 -10 29 -5 0
-10 -7 -10 -16 0 -14 -3 -14 -16 -3 -14 11 -14 13 0 21 18 10 21 34 6 43 -5 3
-12 -6 -16 -20z"/>
<path d="M846 172 c-3 -6 -1 -14 5 -17 15 -10 25 3 12 16 -7 7 -13 7 -17 1z"/>
<path d="M1926 150 c7 -39 11 -46 20 -37 4 4 -1 21 -10 39 l-17 33 7 -35z"/>
<path d="M1893 136 c4 -10 7 -24 7 -32 0 -8 4 -14 9 -14 11 0 1 49 -12 57 -7
4 -8 0 -4 -11z"/>
<path d="M1270 120 c0 -5 5 -10 10 -10 6 0 10 5 10 10 0 6 -4 10 -10 10 -5 0
-10 -4 -10 -10z"/>
<path d="M1210 60 c0 -5 5 -10 10 -10 6 0 10 5 10 10 0 6 -4 10 -10 10 -5 0
-10 -4 -10 -10z"/>
</g>
</svg>
